<svg xmlns="http://www.w3.org/2000/svg" viewBox="0 0 512 512" role="img" aria-label="Onda">
<defs>
<linearGradient id="rg" x1="0" y1="0" x2="0" y2="1"><stop offset="0" stop-color="#6aa6ff"/><stop offset="0.6" stop-color="#3b82f6"/><stop offset="1" stop-color="#2f6fe0"/></linearGradient>
<filter id="gl" x="-35%" y="-35%" width="170%" height="170%"><feGaussianBlur stdDeviation="8"/></filter>
</defs>
<circle cx="256" cy="256" r="236" fill="none" stroke="#3b82f6" stroke-width="22" opacity="0.45" filter="url(#gl)"/>
<circle cx="256" cy="256" r="236" fill="#0d0d10"/>
<circle cx="256" cy="256" r="236" fill="none" stroke="url(#rg)" stroke-width="15"/>
<path d="M386.15216755207257 -12Q282.4746256982381 -12 203.50826767966484 33.7930908203125Q124.54190966109155 79.586181640625 79.77095483054578 161.086181640625Q35 242.586181640625 35 350Q35 457 79.77095483054578 538.5Q124.54190966109155 620 203.50826767966484 666.0Q282.4746256982381 712 386.15216755207257 712Q490.7806585607394 712 570.1659640459948 666.0Q649.55126953125 620 693.7236328125 538.5Q737.89599609375 457 737.89599609375 350Q737.89599609375 242.586181640625 693.7236328125 161.086181640625Q649.55126953125 79.586181640625 570.1659640459948 33.7930908203125Q490.7806585607394 -12 386.15216755207257 -12ZM386.447998046875 109.480712890625Q451.724365234375 109.480712890625 499.7449730562877 138.705078125Q547.7655808782004 167.929443359375 574.0387962984752 221.878173828125Q600.31201171875 275.826904296875 600.31201171875 350Q600.31201171875 424.75927734375 574.0387962984752 478.4149169921875Q547.7655808782004 532.070556640625 499.7449730562877 561.0880126953125Q451.724365234375 590.10546875 386.447998046875 590.10546875Q321.7269206428402 590.10546875 273.647604105887 561.0880126953125Q225.56828756893384 532.070556640625 199.07613597196692 478.4149169921875Q172.583984375 424.75927734375 172.583984375 350Q172.583984375 275.826904296875 199.07613597196692 221.878173828125Q225.56828756893384 167.929443359375 273.647604105887 138.705078125Q321.7269206428402 109.480712890625 386.447998046875 109.480712890625Z" transform="translate(256 256) scale(0.24044 -0.24044) translate(-386.45 -350.00)" fill="#fafafa"/>
</svg>
